# AST/ASF file generated using VICON BodyLanguage
# -----------------------------------------------
:version 1.10
:name VICON
:units
  mass 1.0
  length 0.45
  angle deg
:documentation
   .ast/.asf automatically generated from VICON data using
   VICON BodyBuilder and BodyLanguage model FoxedUp or BRILLIANT.MOD
:root
   order TX TY TZ RX RY RZ
   axis XYZ
   position 0 0 0  
   orientation 0 0 0 
:bonedata
  begin
     id 1 
     name lhipjoint
     direction 0.577973 -0.728611 0.367523 
     length 2.48544 
     axis 0 0 0  XYZ
  end
  begin
     id 2 
     name lfemur
     direction 0.34202 -0.939693 0  
     length 7.1921  
     axis 0 0 20  XYZ
    dof rx ry rz
    limits (-160.0 20.0)
           (-70.0 70.0)
           (-60.0 70.0)
  end
  begin
     id 3 
     name ltibia
     direction 0.34202 -0.939693 0   
     length 7.71059   
     axis 0 0 20   XYZ
    dof rx
    limits (-10.0 170.0)
  end
  begin
     id 4 
     name lfoot
     direction 0.089538 -0.246004 0.965124   
     length 2.19909   
     axis -90 7.62852e-016 20   XYZ
    dof rx rz
    limits (-45.0 90.0)
           (-70.0 20.0)
  end
  begin
     id 5 
     name ltoes
     direction 1.53544e-011 -4.21829e-011 1   
     length 1.10116   
     axis -90 7.62852e-016 20   XYZ
    dof rx
    limits (-90.0 20.0)
  end
  begin
     id 6 
     name rhipjoint
     direction -0.554414 -0.743062 0.374812   
     length 2.4371  
     axis 0 0 0  XYZ 
  end
  begin
     id 7 
     name rfemur
     direction -0.34202 -0.939693 0   
     length 7.47254   
     axis 0 0 -20   XYZ
    dof rx ry rz
    limits (-160.0 20.0)
           (-70.0 70.0)
           (-70.0 60.0)
  end
  begin
     id 8 
     name rtibia
     direction -0.34202 -0.939693 0   
     length 7.65855   
     axis 0 0 -20   XYZ
    dof rx
    limits (-10.0 170.0)
 end
 begin
     id 9 
     name rfoot
     direction -0.133779 -0.367555 0.92033   
     length 2.43006  
     axis -90 -7.62852e-016 -20   XYZ
    dof rx rz
    limits (-45.0 90.0)
           (-20.0 70.0)
  end
  begin
     id 10 
     name rtoes
     direction -1.53563e-011 -4.21889e-011 1   
     length 1.19625   
     axis -90 -7.62852e-016 -20   XYZ
    dof rx
    limits (-90.0 20.0)
  end
  begin
     id 11 
     name lowerback
     direction 0.0249066 0.998043 -0.0573585   
     length 2.08485   
     axis 0 0 0   XYZ
    dof rx ry rz
    limits (-20.0 45.0)
           (-30.0 30.0)
           (-30.0 30.0)
  end
  begin
     id 12 
     name upperback
     direction 0.0237884 0.999673 0.00943178   
     length 2.08515   
     axis 0 0 0   XYZ
    dof rx ry rz
    limits (-20.0 45.0)
           (-30.0 30.0)
           (-30.0 30.0)
  end
  begin
     id 13 
     name thorax
     direction 0.0106671 0.999301 0.0358174   
     length 2.09037   
     axis 0 0 0   XYZ
    dof rx ry rz
    limits (-20.0 45.0)
           (-30.0 30.0)
           (-30.0 30.0)
  end
  begin
     id 14 
     name lowerneck
     direction -0.0580016 0.987052 0.149546   
     length 1.84454   
     axis 0 0 0   XYZ
    dof rx ry rz
    limits (-20.0 45.0)
           (-30.0 30.0)
           (-30.0 30.0)
  end
  begin
     id 15 
     name upperneck
     direction 0.079456 0.981963 -0.171567   
     length 1.88141   
     axis 0 0 0   XYZ
    dof rx ry rz
    limits (-20.0 45.0)
           (-30.0 30.0)
           (-30.0 30.0)
  end
  begin
     id 16
     name head
     direction 0.0262167 0.9967 -0.0768276  
     length 1.89541  
     axis 0 0 0   XYZ
    dof rx ry rz
    limits (-20.0 45.0)
           (-30.0 30.0)
           (-30.0 30.0)
  end
  begin
     id 17 
     name lclavicle
     direction 0.946135 0.322134 -0.0325326  
     length 3.949  
     axis 0 0 0   XYZ
    dof ry rz
    limits (-20.0 10.0)
           (0.0 20.0)
  end
  begin
     id 18 
     name lhumerus
     direction 1 -4.48964e-011 1.94005e-028   
     length 5.10995   
     axis 180 -30 -90   XYZ
    dof rx ry rz
    limits (-60.0 90.0)
           (-90.0 90.0)
           (-90.0 90.0)
  end
  begin
     id 19
     name lradius
     direction 1 -4.48976e-011 2.87852e-027   
     length 3.21207   
     axis 180 -30 -90   XYZ
    dof rx
    limits (-10.0 170.0)
  end
  begin
     id 20
     name lwrist
     direction 1 -4.48963e-011 1.9975e-027   
     length 1.60604   
     axis 2.96054e-016 90 90   XYZ
    dof ry
    limits (-180.0 0.0)
 end
  begin
     id 21 
     name lhand
     direction 1 -4.48919e-011 4.00227e-027   
     length 0.63349   
     axis -2.5488e-015 90 90   XYZ
    dof rx rz
    limits (-90.0 90.0)
           (-45.0 45.0)
  end
  begin
     id 22 
     name lfingers
     direction 1 -4.49037e-011 7.9652e-027   
     length 0.510736   
     axis -5.0975e-015 90 90   XYZ
    dof rx
    limits (0.0 90.0)
  end
  begin
     id 23
     name lthumb
     direction 0.707107 -6.34922e-011 0.707107   
     length 0.733318   
     axis -90 45 -4.48553e-014   XYZ
    dof rx rz
    limits (-45.0 45.0)
           (-45.0 45.0)
  end
  begin
     id 24 
     name rclavicle
     direction -0.940085 0.328911 -0.0897654   
     length 3.93848  
     axis 0 0 0   XYZ 
    dof ry rz
    limits (-10.0 20.0)
           (-20.0 0.0)
  end
  begin
     id 25 
     name rhumerus
     direction -1 -4.48958e-011 3.02044e-027  
     length 5.25109   
     axis 180 30 90   XYZ
    dof rx ry rz
    limits (-90.0 60.0)
           (-90.0 90.0)
           (-90.0 90.0)
  end
  begin
     id 26 
     name rradius
     direction -1 -4.4897e-011 9.78352e-028   
     length 3.28364   
     axis 180 30 90   XYZ
    dof rx
    limits (-10.0 170.0)
  end
  begin
     id 27 
     name rwrist
     direction -1 -4.48943e-011 1.99918e-027   
     length 1.64182   
     axis 2.96054e-016 -90 -90   XYZ
    dof ry
    limits (-180.0 0.0)
  end
  begin
     id 28
     name rhand
     direction -1 -4.49024e-011 3.98478e-027   
     length 0.599745   
     axis -2.5488e-015 -90 -90   XYZ
    dof rx rz
    limits (-90.0 90.0)
           (-45.0 45.0)
  end
  begin
     id 29
     name rfingers
     direction -1 -4.48914e-011 8.00621e-027   
     length 0.48353   
     axis -5.0975e-015 -90 -90   XYZ
    dof rx
    limits (0.0 90.0)
  end
  begin
     id 30
     name rthumb
     direction -0.707107 -6.34992e-011 0.707107   
     length 0.694255   
     axis -90 -45 4.48553e-014   XYZ
    dof rx rz
    limits (-45.0 45.0)
           (-45.0 45.0)
  end
:hierarchy
  begin
    root lhipjoint rhipjoint lowerback
    lhipjoint lfemur
    lfemur ltibia
    ltibia lfoot
    lfoot ltoes
    rhipjoint rfemur
    rfemur rtibia
    rtibia rfoot
    rfoot rtoes
    lowerback upperback
    upperback thorax
    thorax lowerneck lclavicle rclavicle
    lowerneck upperneck
    upperneck head
    lclavicle lhumerus
    lhumerus lradius
    lradius lwrist
    lwrist lhand lthumb
    lhand lfingers
    rclavicle rhumerus
    rhumerus rradius
    rradius rwrist
    rwrist rhand rthumb
    rhand rfingers
  end

#!OML:ASF E:\CV Data\Top Level 1\Subject 1\Session 1\player.ASF
:FULLY-SPECIFIED
:DEGREES
78
root 5.75658 17.8277 -3.2958 13.1309 11.3507 -0.572785
lowerback 4.21506 3.49454 -1.6043
upperback -0.33186 4.62859 1.74696
thorax -2.97277 2.34647 2.37499
lowerneck -1.97388 -16.051 -19.0174
upperneck 3.35613 -22.2614 20.0572
head 5.79628 -10.8449 7.21783
rclavicle -2.38542e-014 9.54166e-015
rhumerus -0.0822009 18.2462 -85.1226
rradius 71.8543
rwrist -36.9066
rhand -35.0253 0.588567
rfingers 7.12502
rthumb -8.16917 -29.2335
lclavicle -2.38542e-014 9.54166e-015
lhumerus -30.4386 -13.4526 91.7736
lradius 95.5313
lwrist 53.7039
lhand -24.7845 31.4221
lfingers 7.12502
lthumb 1.71967 61.3949
rfemur -12.7218 -23.4919 17.1826
rtibia 31.2639
rfoot -19.2618 -31.9212
rtoes -3.47678
lfemur -25.7444 -8.89184 -18.4327
ltibia 19.2813
lfoot -5.65036 -20.1369
ltoes 10.1568
79
root 5.75414 17.8269 -3.30265 13.2752 11.9366 -0.509796
lowerback 4.34396 3.5761 -1.57554
upperback -0.257348 4.73813 1.78859
thorax -2.97556 2.40005 2.38791
lowerneck -1.79707 -16.16 -19.0477
upperneck 2.89123 -22.394 20.273
head 5.684 -10.9246 7.28627
rclavicle -1.59028e-015 1.59028e-015
rhumerus -0.435334 18.6579 -84.8488
rradius 72.0472
rwrist -36.5158
rhand -33.858 0.177968
rfingers 7.12502
rthumb -7.04245 -29.6849
lclavicle -1.59028e-015 1.59028e-015
lhumerus -30.444 -13.069 91.4995
lradius 95.586
lwrist 53.7045
lhand -24.8876 31.3897
lfingers 7.12502
lthumb 1.62016 61.3632
rfemur -12.8807 -23.7249 17.2474
rtibia 31.4635
rfoot -19.3857 -31.997
rtoes -3.47418
lfemur -25.9758 -9.01092 -18.4753
ltibia 19.249
lfoot -5.51364 -20.5716
ltoes 10.4864
80
root 5.75182 17.8262 -3.30809 13.4146 12.4885 -0.450992
lowerback 4.46185 3.66645 -1.53859
upperback -0.1949 4.8599 1.8235
thorax -2.98404 2.45972 2.38842
lowerneck -1.54276 -16.259 -19.0908
upperneck 2.39798 -22.5222 20.5107
head 5.55477 -11.0077 7.37141
rclavicle 6.42074e-014 2.54444e-014
rhumerus -0.83768 19.1632 -84.6015
rradius 72.2315
rwrist -36.0622
rhand -32.61 -0.278995
rfingers 7.12502
rthumb -5.83766 -30.1786
lclavicle 6.42074e-014 2.54444e-014
lhumerus -30.4935 -12.6877 91.217
lradius 95.6525
lwrist 53.7485
lhand -24.937 31.3587
lfingers 7.12502
lthumb 1.57242 61.3327
rfemur -13.0244 -23.9458 17.3113
rtibia 31.642
rfoot -19.5168 -32.062
rtoes -3.4436
lfemur -26.1953 -9.12384 -18.516
ltibia 19.2247
lfoot -5.3886 -20.9763
ltoes 10.7886
81
root 5.75012 17.8252 -3.31225 13.537 12.9992 -0.395553
lowerback 4.57564 3.76847 -1.49778
upperback -0.127258 4.99742 1.85717
thorax -2.98524 2.52704 2.38444
lowerneck -1.2622 -16.3749 -19.1256
upperneck 1.88455 -22.6729 20.7392
head 5.41817 -11.1046 7.45144
rclavicle -6.57977e-014 -3.10104e-014
rhumerus -1.25354 19.7534 -84.3592
rradius 72.4027
rwrist -35.5654
rhand -31.215 -0.766327
rfingers 7.12502
rthumb -4.49076 -30.6987
lclavicle -6.57977e-014 -3.10104e-014
lhumerus -30.5553 -12.3079 90.9318
lradius 95.7209
lwrist 53.8261
lhand -25.106 31.3776
lfingers 7.12502
lthumb 1.40924 61.3527
rfemur -13.143 -24.1581 17.3642
rtibia 31.8014
rfoot -19.6288 -32.1193
rtoes -3.43608
lfemur -26.3905 -9.23488 -18.559
ltibia 19.2116
lfoot -5.27952 -21.3397
ltoes 11.0598
82
root 5.74973 17.8239 -3.31541 13.6486 13.4645 -0.348226
lowerback 4.67694 3.88913 -1.43155
upperback -0.0610058 5.16091 1.87804
thorax -2.97878 2.60676 2.35169
lowerneck -0.928657 -16.4917 -19.1588
upperneck 1.34543 -22.83 20.9834
head 5.26945 -11.2089 7.5406
rclavicle 1.72943e-014 7.95139e-015
rhumerus -1.69287 20.3863 -84.1354
rradius 72.5642
rwrist -35.067
rhand -29.6517 -1.2306
rfingers 7.12502
rthumb -2.98109 -31.1895
lclavicle 1.72943e-014 7.95139e-015
lhumerus -30.6322 -11.9562 90.6398
lradius 95.786
lwrist 53.9216
lhand -25.2441 31.3765
lfingers 7.12502
lthumb 1.27583 61.3524
rfemur -13.2503 -24.3649 17.4119
rtibia 31.9441
rfoot -19.7094 -32.1677
rtoes -3.46344
lfemur -26.5719 -9.34484 -18.599
ltibia 19.2116
lfoot -5.18659 -21.6557
ltoes 11.2862
83
root 5.75012 17.8223 -3.31878 13.7635 13.8886 -0.306992
lowerback 4.77366 4.02326 -1.3573
upperback 0.0031326 5.34281 1.89575
thorax -2.97158 2.69554 2.30973
lowerneck -0.598789 -16.6181 -19.1861
upperneck 0.813086 -22.9984 21.2134
head 5.12396 -11.3193 7.62276
rclavicle -1.88845e-014 -1.03368e-014
rhumerus -2.1288 21.0587 -83.9097
rradius 72.7221
rwrist -34.5601
rhand -27.8637 -1.74783
rfingers 7.12502
rthumb -1.25431 -31.7239
lclavicle -1.88845e-014 -1.03368e-014
lhumerus -30.6943 -11.6115 90.3497
lradius 95.8328
lwrist 54.0238
lhand -25.3777 31.3774
lfingers 7.12502
lthumb 1.14673 61.3541
rfemur -13.3703 -24.5653 17.4633
rtibia 32.0737
rfoot -19.7586 -32.2136
rtoes -3.52482
lfemur -26.7602 -9.44711 -18.6356
ltibia 19.223
lfoot -5.10165 -21.9343
ltoes 11.4775
84
root 5.75051 17.8206 -3.32207 13.8763 14.2809 -0.268824
lowerback 4.87392 4.16279 -1.29384
upperback 0.0788962 5.53138 1.91917
thorax -2.95591 2.7877 2.27899
lowerneck -0.341198 -16.7535 -19.2139
upperneck 0.318749 -23.1705 21.4248
head 5.0009 -11.4272 7.69182
rclavicle -1.31198e-014 -9.54166e-015
rhumerus -2.51724 21.8141 -83.6603
rradius 72.8739
rwrist -34.1756
rhand -25.9354 -2.23393
rfingers 7.12502
rthumb 0.608119 -32.2128
lclavicle -1.31198e-014 -9.54166e-015
lhumerus -30.7092 -11.2479 90.0604
lradius 95.8516
lwrist 54.0966
lhand -25.4599 31.3791
lfingers 7.12502
lthumb 1.0674 61.3562
rfemur -13.493 -24.7573 17.5175
rtibia 32.1926
rfoot -19.7941 -32.2647
rtoes -3.60562
lfemur -26.9471 -9.53577 -18.6713
ltibia 19.2441
lfoot -5.02329 -22.1912
ltoes 11.6554
85
root 5.75096 17.819 -3.32491 13.9943 14.6548 -0.227821
lowerback 4.98386 4.30328 -1.23443
upperback 0.144891 5.72093 1.93627
thorax -2.95521 2.88053 2.24243
lowerneck -0.115192 -16.8838 -19.2373
upperneck -0.136025 -23.3344 21.6205
head 4.89128 -11.5291 7.7537
rclavicle -2.22639e-014 -8.74653e-015
rhumerus -2.88866 22.6307 -83.4124
rradius 73.0197
rwrist -33.9105
rhand -23.8652 -2.79856
rfingers 7.12502
rthumb 2.6075 -32.7624
lclavicle -2.22639e-014 -8.74653e-015
lhumerus -30.7202 -10.8838 89.7637
lradius 95.8572
lwrist 54.1497
lhand -25.5196 31.3944
lfingers 7.12502
lthumb 1.00969 61.3718
rfemur -13.6196 -24.9505 17.5724
rtibia 32.3022
rfoot -19.8452 -32.312
rtoes -3.65461
lfemur -27.1368 -9.61308 -18.7107
ltibia 19.2706
lfoot -4.9468 -22.4395
ltoes 11.8327
86
root 5.75146 17.8173 -3.32783 14.1205 15.0026 -0.187509
lowerback 5.08823 4.43702 -1.19097
upperback 0.217145 5.90083 1.96199
thorax -2.94663 2.96879 2.22467
lowerneck 0.0298024 -17.0104 -19.2734
upperneck -0.537588 -23.486 21.7973
head 4.80782 -11.6194 7.80528
rclavicle 3.33958e-014 2.54444e-014
rhumerus -3.19128 23.578 -83.1266
rradius 73.1555
rwrist -33.8915
rhand -21.772 -3.40392
rfingers 7.12502
rthumb 4.62892 -33.3333
lclavicle 3.33958e-014 2.54444e-014
lhumerus -30.6999 -10.4787 89.4683
lradius 95.8471
lwrist 54.1745
lhand -25.5557 31.4093
lfingers 7.12502
lthumb 0.974902 61.3869
rfemur -13.7592 -25.1433 17.6325
rtibia 32.4003
rfoot -19.8903 -32.3592
rtoes -3.69862
lfemur -27.3329 -9.67332 -18.7508
ltibia 19.2991
lfoot -4.8683 -22.6774
ltoes 12.0105
87
root 5.75207 17.8159 -3.33018 14.2544 15.3345 -0.146084
lowerback 5.1927 4.56312 -1.15766
upperback 0.284334 6.07006 1.98686
thorax -2.94357 3.05194 2.21195
lowerneck 0.114709 -17.1317 -19.3093
upperneck -0.885201 -23.627 21.9568
head 4.74612 -11.7001 7.84676
rclavicle 5.88403e-014 1.43125e-014
rhumerus -3.44199 24.662 -82.8123
rradius 73.2838
rwrist -34.1886
rhand -19.7431 -4.05862
rfingers 7.12502
rthumb 6.58787 -33.9361
lclavicle 5.88403e-014 1.43125e-014
lhumerus -30.6698 -10.0505 89.1671
lradius 95.8293
lwrist 54.1776
lhand -25.571 31.4506
lfingers 7.12502
lthumb 0.960086 61.4282
rfemur -13.9025 -25.3397 17.6966
rtibia 32.4837
rfoot -19.9442 -32.4032
rtoes -3.72311
lfemur -27.532 -9.72053 -18.7924
ltibia 19.3273
lfoot -4.79041 -22.9131
ltoes 12.1924
88
root 5.75259 17.8148 -3.33205 14.3992 15.6375 -0.110265
lowerback 5.28178 4.68678 -1.12882
upperback 0.336855 6.23594 2.0068
thorax -2.94672 3.13363 2.19717
lowerneck 0.202696 -17.2392 -19.3426
upperneck -1.21153 -23.7515 22.1077
head 4.68583 -11.7728 7.88829
rclavicle 2.50469e-014 -2.22639e-014
rhumerus -3.65666 25.8711 -82.4735
rradius 73.4034
rwrist -34.7871
rhand -17.8108 -4.79242
rfingers 7.12502
rthumb 8.45294 -34.6033
lclavicle 2.50469e-014 -2.22639e-014
lhumerus -30.6684 -9.61453 88.8589
lradius 95.8242
lwrist 54.1727
lhand -25.5811 31.4984
lfingers 7.12502
lthumb 0.950302 61.476
rfemur -14.0573 -25.5279 17.7725
rtibia 32.5491
rfoot -19.9958 -32.4443
rtoes -3.73714
lfemur -27.7386 -9.74385 -18.8292
ltibia 19.355
lfoot -4.71392 -23.1456
ltoes 12.3758
